<svg width="650" height="188" viewBox="0 0 650 188" fill="none" xmlns="http://www.w3.org/2000/svg">
<g clip-path="url(#clip0)">
<rect width="650" height="188" fill="white"/>
<path d="M411.198 132.527C411.198 137.544 411.131 142.197 411.231 146.848C411.303 147.667 411.146 148.491 410.777 149.226C410.408 149.961 409.841 150.578 409.141 151.009C384.343 168.174 357.955 173.272 330.047 159.784C306.374 148.343 294.115 124.154 296.244 95.9636C298.116 71.1688 314.918 48.8117 339.09 41.7361C363.018 34.7317 386.011 36.3627 404.903 55.3393C407.688 58.1365 409.804 61.6128 412.134 64.8437C413.582 66.8502 413.148 68.2404 410.843 69.5802C390.713 81.2781 370.659 93.1068 350.571 104.876C340.384 110.844 330.257 116.922 319.926 122.628C316.374 124.59 316.768 126.302 318.532 129.215C329.431 147.218 352.501 156.533 373.577 151.558C385.83 148.666 396.395 142.575 406.417 135.286C407.727 134.333 408.783 132.974 411.198 132.527Z" fill="#2A4964"/>
<path d="M443.958 59.5982C449.232 53.2073 454.103 48.1282 460.142 44.1969C476.348 33.6469 502.628 35.8601 515.774 49.2452C524.027 57.6486 527.554 68.2798 527.732 79.6701C528.159 106.802 527.921 133.944 528.044 161.082C528.055 163.503 527.116 164.029 524.918 164.395C514.074 166.201 514.087 166.283 514.087 155.413C514.087 134.934 514.09 114.455 514.097 93.9757C514.123 88.4831 513.755 82.9957 512.995 77.5558C509.576 53.6225 486.284 41.6073 465.012 53.1219C451.348 60.5184 443.879 71.9123 443.936 87.8478C444.021 111.656 443.903 135.466 444.021 159.274C444.037 162.523 443.757 164.176 439.777 164.603C429.824 165.673 429.855 165.961 429.855 156.12C429.855 119.325 429.924 82.5287 429.757 45.734C429.739 41.6677 430.845 40.3946 434.899 40.1839C443.97 39.7122 443.958 39.48 443.958 48.8116L443.958 59.5982Z" fill="#2A4964"/>
<path d="M236.697 38.217C251.667 38.3703 265.662 41.8356 278.407 50.004C281.095 51.7265 281.295 52.7614 279.277 55.1956C272.653 63.185 272.744 63.2602 263.953 58.3746C235.776 42.7151 201.956 53.519 188.28 82.5486C178.881 102.5 185.79 128.793 204.081 142.582C223.545 157.255 243.873 156.183 264.666 145.804C266.746 144.75 268.753 143.56 270.676 142.241C272.309 141.134 273.503 140.941 274.824 142.755C276.684 145.307 278.717 147.742 280.799 150.119C282.101 151.606 281.999 152.397 280.258 153.529C254.4 170.336 220.026 172.718 195.401 154.226C173.134 137.506 163.692 106.562 173.477 80.4553C183.504 53.7011 206.914 38.061 236.697 38.217Z" fill="#2A4964"/>
<path d="M616.23 3.31152C616.23 14.8334 616.362 25.6093 616.154 36.3786C616.087 39.8477 617.058 41.0067 620.604 40.8986C628.587 40.6547 636.586 40.946 644.573 40.7607C647.722 40.6876 648.935 41.4549 648.928 44.8868C648.909 54.3097 649.077 54.31 639.465 54.3101C632.972 54.3101 626.477 54.4048 619.988 54.2649C617.309 54.2071 616.123 54.8396 616.175 57.8456C616.589 81.6422 615.568 105.451 616.781 129.242C616.849 130.572 616.987 131.898 617.12 133.223C618.675 148.744 626.782 153.201 641.964 151.788C649.928 151.047 649.545 150.756 650.026 158.836C650.308 163.582 648.374 164.851 644.248 165.191C639.935 165.546 635.686 166.095 631.323 165.524C614.339 163.302 607.392 156.836 604.096 140.024C602.677 132.788 602.538 125.472 602.531 118.145C602.514 98.3344 602.444 78.5229 602.602 58.7133C602.63 55.2181 601.648 53.9547 598.129 54.2502C594.823 54.5277 591.458 54.0959 588.15 54.3671C584.527 54.6643 584.14 53.2087 585.444 50.3825C585.514 50.2312 585.573 50.075 585.62 49.9152C588.279 40.8988 588.285 40.6685 597.695 40.928C601.814 41.0416 602.77 39.6486 602.605 35.8263C602.319 29.1795 602.715 22.5038 602.444 15.8557C602.31 12.5669 603.344 10.5957 606.268 9.13922C609.488 7.53552 612.502 5.51842 616.23 3.31152Z" fill="#2A4964"/>
<path d="M554.838 103.141C554.838 83.9824 554.926 64.8234 554.76 45.6666C554.729 41.9942 555.47 40.4459 559.541 40.2117C569.033 39.6656 569.019 39.4166 569.019 49.0356C569.019 85.5195 568.924 122.004 569.141 158.487C569.168 162.969 567.809 164.414 563.566 164.912C554.813 165.938 554.838 166.151 554.838 157.117C554.838 139.125 554.838 121.133 554.838 103.141Z" fill="#2A4964"/>
<path d="M570.61 8.91262C570.48 11.2554 569.457 13.4593 567.753 15.0715C566.048 16.6837 563.79 17.5817 561.444 17.581C559.134 17.5133 556.943 16.5385 555.346 14.8678C553.749 13.197 552.874 10.9645 552.91 8.6535C552.947 6.34247 553.892 4.13878 555.541 2.51928C557.19 0.899783 559.41 -0.00526372 561.722 2.30319e-05C564.067 0.0510013 566.302 1.00715 567.959 2.66833C569.615 4.32951 570.565 6.56699 570.61 8.91262V8.91262Z" fill="#2B4A65"/>
<path d="M143.914 128.537C143.828 128.679 143.731 128.814 143.624 128.941C136.887 135.932 136.889 135.93 142.203 144.279C142.899 145.373 144.205 146.739 143.425 147.78C142.262 149.333 140.632 147.919 139.46 147.261C134.86 144.675 129.796 142.917 125.627 139.562C123.753 136.344 125.644 132.871 124.95 129.573C130.959 129.708 136.895 129.3 142.61 127.228C143.731 126.981 144.065 127.519 143.914 128.537Z" fill="#E2DB3F"/>
<path d="M107.801 151.447C112.859 154.958 118.626 157.316 124.694 158.354C125.313 159.49 124.344 159.754 123.687 160.189L114.733 162.323C113.568 166.208 114.568 170.191 114.177 174.106C114.068 175.202 114.991 176.841 112.936 177.2C108.441 171.433 104.675 165.133 101.724 158.442C103.626 156.003 105.891 153.88 107.801 151.447Z" fill="#E5DD3E"/>
<path d="M23.6763 118.351C18.1596 122.057 13.3664 126.74 9.53265 132.169C15.2173 121.469 10.9271 115.925 0.985657 113.055C0.415657 112.89 -0.575841 112.193 0.435059 111.227C2.74916 110.089 5.48385 111.811 7.72195 110.156C11.3181 108.871 15.0573 109.351 18.7503 109.262C21.8785 111.486 22.5733 115.029 23.6763 118.351Z" fill="#E5DE3E"/>
<path d="M9.81409 93.5573C10.0699 93.1365 10.3746 92.7476 10.722 92.3986C14.9855 89.0144 16.8893 85.2645 12.6711 80.4995C12.3787 77.9495 12.2411 75.523 16.0563 76.2312C20.2087 78.416 24.9776 79.2925 28.7768 82.2266C29.2301 85.437 28.5095 88.7032 26.7475 91.425C20.9187 91.9262 15.1978 93.2977 9.7753 95.4938C9.6329 95.3744 9.51908 95.2246 9.4422 95.0555C9.36533 94.8863 9.32734 94.702 9.33106 94.5162C9.33478 94.3305 9.3801 94.1479 9.46369 93.9819C9.54728 93.816 9.66702 93.6709 9.81409 93.5573V93.5573Z" fill="#E7DF3F"/>
<path d="M57.2948 162.493C57.3763 167.499 58.2592 172.459 59.9099 177.185C60.2081 178.237 59.7488 178.5 58.799 178.253C51.2353 170.323 51.2408 170.335 41.634 174.931C40.534 175.458 39.4835 176.364 37.6832 176.003C39.1832 170.237 42.92 166.016 45.7484 161.317C49.813 159.595 53.4202 162.358 57.2948 162.493Z" fill="#E7E03C"/>
<path d="M87.7254 41.2731C86.4833 42.4139 87.0067 43.9351 86.8554 45.3109C85.4031 46.8042 86.902 48.9094 85.7854 50.4723C85.6595 52.5716 85.0175 54.6073 83.9163 56.3991C80.6425 58.5402 77.0578 57.8716 73.5116 57.5504C72.013 52.1317 69.4904 47.0501 66.0803 42.5804C69.3454 42.612 70.8814 44.3396 72.6011 45.5793C75.4604 47.6405 78.3848 47.4485 80.2744 44.7437C81.9668 42.3212 84.3609 41.0102 86.4183 39.1798C88.1889 39.0439 88.44 39.857 87.7254 41.2731Z" fill="#E5DD3D"/>
<path d="M28.7867 58.3924C30.7254 57.9805 32.6982 57.7503 34.6796 57.7047C38.6796 57.9586 40.153 55.8025 40.5782 52.3233C42.2824 49.4181 40.4011 46.0878 41.6682 43.1308C41.8069 42.4976 42.162 42.3428 42.7269 42.6521C43.4793 43.8173 43.716 45.2484 44.6242 46.3333C46.1556 50.5617 49.8835 53.689 50.6287 58.3115C48.3368 61.2007 45.6831 63.7834 42.7329 65.9962C38.9459 63.7014 34.9319 61.8039 30.7548 60.334C30.3291 59.4535 28.1709 60.3289 28.7867 58.3924Z" fill="#E7DF3D"/>
<path d="M73.6281 178.009C73.3849 175.157 73.5907 172.284 74.2381 169.496C77.9434 168.26 81.5754 166.635 85.6476 167.343C87.9012 171.542 90.7813 175.374 94.1888 178.706C90.8458 179.77 88.8007 178.022 86.8117 177.044C83.8231 175.576 81.5017 176.219 80.0942 178.813C78.5876 181.59 75.4835 183.083 74.5899 186.235C71.864 183.774 73.591 180.792 73.6281 178.009Z" fill="#E9E13D"/>
<path d="M103.05 61.198L103.55 59.268C104.632 55.3796 104.676 51.2754 103.675 47.3651L103.69 47.4C103.181 46.3005 102.818 45.2734 104.703 45.364C110.674 53.0766 110.674 53.0766 120.433 50.2431C122.271 49.7231 123.634 49.735 122.718 52.2903C119.018 55.4083 118.011 60.6593 113.885 63.4396C109.865 64.6637 106.619 62.1511 103.05 61.198Z" fill="#E6DE3D"/>
<path d="M133.593 66.3996C134.289 76.391 134.292 76.3731 144.193 78.1624C145.773 78.4481 147.552 78.0466 149.511 79.8971C144.655 81.6761 140.76 84.6972 135.797 85.4108C131.513 85.1445 128.229 81.879 126.748 76.4119L131.564 67.2894C132.206 66.9127 132.512 65.7735 133.593 66.3996Z" fill="#E6E03C"/>
<path d="M145.87 100.381C143.976 104.664 145.461 107.348 149.605 109.261C152.338 110.64 154.83 112.45 156.987 114.622C148.877 115.264 140.855 115.893 132.807 114.564C133.861 111.92 138.509 114.721 138.615 110.815C138.686 108.199 136.927 105.952 136.746 103.346L143.671 98.2026C144.168 98.3935 144.621 98.6857 144.999 99.0607C145.378 99.4356 145.674 99.8852 145.87 100.381Z" fill="#E4DF44"/>
<path d="M17.5885 144.979C18.8885 143.205 20.8044 142.267 22.6599 141.248C24.9364 140.848 27.2812 141.239 29.3055 142.354C31.3297 143.47 32.912 145.244 33.7899 147.382L32.625 152.366C31.6877 153.937 32.784 155.836 31.8135 157.401L31.8676 157.424C30.6641 158.028 30.2364 156.671 29.3657 156.434L26.6703 149.715C25.481 147.885 24.0474 149.372 22.6987 149.365C19.8439 149.352 17.3535 148.693 17.5885 144.979Z" fill="#EAE13B"/>
<path d="M107.801 151.447C107.452 155.235 105.026 157.218 101.724 158.441C99.269 155.009 97.2216 151.304 95.6223 147.4C97.15 146.72 98.5306 145.748 99.6871 144.541L107.801 151.447Z" fill="#7F8D5D"/>
<path d="M26.7475 91.4249C26.7431 88.2087 26.956 85.0406 28.7775 82.2271C32.0737 83.7971 35.5945 84.9485 38.4345 87.3763C37.7793 89.1639 38.5262 91.431 36.5869 92.7796L26.7475 91.4249Z" fill="#859158"/>
<path d="M136.746 103.345C140.017 105.574 139.405 109.411 140.424 112.541C140.897 113.992 139.376 114.267 138.172 114.319C136.383 114.398 134.594 114.479 132.806 114.562L132.684 114.441C131.084 111.93 129.884 109.321 130.654 106.225L136.746 103.345Z" fill="#DED840"/>
<path d="M126.748 76.4116C129.977 79.1975 131.013 84.189 135.798 85.4101C133.353 87.0279 130.556 88.0361 127.641 88.3501C124.851 87.1465 122.643 84.8992 121.488 82.0888L126.748 76.4116Z" fill="#D7D143"/>
<path d="M130.655 106.225C131.791 108.85 133.007 111.455 132.685 114.441C128.254 114.329 123.783 114.783 119.435 113.503C120.73 112.276 121.706 110.976 120.415 109.164C123.671 107.703 127.119 106.714 130.655 106.225V106.225Z" fill="#6B7E6B"/>
<path d="M124.95 129.573C128.877 132.652 124.95 136.263 125.627 139.562C122.783 138.586 120.114 137.157 117.724 135.332C117.805 133.57 119.234 131.683 117.234 130.115C116.796 129.61 116.405 129.092 116.749 128.375L124.95 129.573Z" fill="#86925A"/>
<path d="M121.488 82.0889C123.929 83.7538 126.019 85.881 127.642 88.3502C124.809 89.73 121.797 90.7056 118.693 91.2487C117.872 90.8453 117.146 90.271 116.565 89.5643C115.984 88.8577 115.56 88.0349 115.323 87.1513C117.361 85.4428 118.835 83.0478 121.488 82.0889Z" fill="#6F805F"/>
<path d="M103.05 61.198C107.104 59.8062 110.179 63.148 113.884 63.4394C112.385 65.5614 111.26 68.0256 108.663 69.1407C106.145 68.5081 103.427 68.3656 101.523 66.2298C102.032 64.5525 102.541 62.8752 103.05 61.198Z" fill="#AAAE4F"/>
<path d="M23.6762 118.35C20.4444 116.183 20.757 112.094 18.75 109.262C22.6925 108.43 26.735 108.174 30.751 108.503C30.8019 108.704 30.8007 108.914 30.7476 109.115C30.6945 109.315 30.5913 109.498 30.4476 109.647C29.4739 110.449 28.1102 110.221 27.1117 110.927C26.7017 112.446 27.6452 113.287 28.6517 114.09C29.2482 114.398 29.7274 114.893 30.0158 115.499C28.2019 117.116 25.7799 117.379 23.6762 118.35Z" fill="#A1A85E"/>
<path d="M58.809 152.298C58.9909 154.374 58.6017 156.461 57.6835 158.331C54.2845 160.375 51.2355 159.511 48.3595 157.209C49.6536 154.253 51.4247 151.53 53.602 149.148C55.5555 149.786 57.3368 150.864 58.809 152.298V152.298Z" fill="#939C55"/>
<path d="M48.3595 157.209C51.4676 157.583 54.5757 157.957 57.6836 158.331C57.5544 159.718 57.4251 161.105 57.2958 162.492C53.1535 164.977 49.6611 161.086 45.7488 161.316C46.2575 159.749 47.1558 158.335 48.3595 157.209V157.209Z" fill="#BDBD48"/>
<path d="M73.5117 57.5501C76.7581 55.1633 80.4525 56.8247 83.9161 56.3989C83.6699 58.5657 82.9912 60.6609 81.9202 62.5605C79.8702 62.9238 77.5902 61.9127 75.7656 63.6036C75.5565 63.8531 75.2859 64.0436 74.9805 64.1562C74.6751 64.2688 74.3455 64.2996 74.0245 64.2456C73.8536 62.0138 73.6827 59.782 73.5117 57.5501Z" fill="#A9AD4C"/>
<path d="M85.6479 167.342C81.9136 168.427 78.2989 170.147 74.238 169.495C73.848 167.717 74.515 166.072 74.8822 164.388C77.856 163.927 80.8211 163.401 83.8291 163.196C84.4353 164.578 85.0416 165.96 85.6479 167.342Z" fill="#C0BF48"/>
<path d="M37.5297 140.319C37.1686 141.81 36.4246 143.18 35.3712 144.296C31.0418 144.352 28.0129 142.54 26.7031 138.26C27.7366 136.92 29.1144 135.885 30.6895 135.267C33.1283 136.724 35.4192 138.416 37.5297 140.319V140.319Z" fill="#B6B74C"/>
<path d="M120.415 109.164C122.181 109.49 123.605 110.542 123.168 112.313C122.739 114.058 120.662 112.942 119.435 113.503C115.557 113.484 111.646 113.68 107.43 111.57C112.181 110.886 116.412 110.569 120.415 109.164Z" fill="#536A69"/>
<path d="M99.6871 144.54C99.8189 147.608 98.5787 148.725 95.6219 147.399C94.2191 144.489 92.311 141.81 91.5818 138.591C91.1107 137.479 91.6666 137.251 92.6296 137.373L99.6871 144.54Z" fill="#465F63"/>
<path d="M42.7332 65.9962C44.2945 62.5255 47.1174 59.7784 50.6293 58.312C51.0529 59.2995 51.4767 60.2874 51.9007 61.2755C50.5968 64.3508 48.0082 66.3161 45.6645 68.4929L42.7332 65.9962Z" fill="#BCBC47"/>
<path d="M26.7032 138.259C29.0117 141.106 32.2009 142.688 35.3719 144.295C34.8441 145.324 34.3168 146.353 33.7899 147.382C30.3657 144.819 27.3291 141.552 22.6599 141.248C23.087 140.495 23.6677 139.839 24.3642 139.324C25.0607 138.81 25.8576 138.447 26.7032 138.259V138.259Z" fill="#D6D146"/>
<path d="M58.809 152.298C56.8258 151.657 54.2239 152.038 53.6022 149.148C53.8854 147.038 55.5822 145.828 56.7176 144.261C58.0803 144.424 59.4611 143.321 60.8118 144.319L58.809 152.298Z" fill="#586E67"/>
<path d="M76.6114 151.207C76.3514 147.77 77.6182 144.563 78.1782 141.253C78.2682 140.72 78.4177 139.328 79.5314 139.752C80.3742 140.073 80.0152 141.117 79.8592 141.884C80.8314 144.27 79.4492 146.953 80.7963 149.291L80.861 149.273C81.3084 150.284 81.3458 151.43 80.9653 152.468C80.7822 152.848 80.5183 153.184 80.192 153.451C79.8657 153.719 79.4849 153.912 79.0763 154.017C78.6676 154.122 78.2409 154.137 77.826 154.06C77.4112 153.983 77.0182 153.816 76.6745 153.571C76.4311 153.227 76.2952 152.819 76.284 152.398C76.2727 151.978 76.3867 151.563 76.6114 151.207V151.207Z" fill="#486164"/>
<path d="M17.5885 144.979C19.0385 147.711 20.9778 149.374 24.3585 148.409C24.5956 148.323 24.8483 148.29 25.0993 148.311C25.3504 148.332 25.5939 148.408 25.8133 148.531C26.0327 148.655 26.2228 148.825 26.3706 149.029C26.5185 149.233 26.6205 149.467 26.6699 149.714C23.4136 149.96 20.1572 150.205 16.9006 150.449C15.3157 150.593 13.3548 152.029 12.6345 149.206C14.0054 147.498 15.6861 146.064 17.5885 144.979V144.979Z" fill="#E4DF3F"/>
<path d="M101.699 77.0292C99.7122 79.9376 96.814 81.8507 93.8255 84.5329C93.747 80.5029 96.6688 78.2915 97.4622 75.2619C98.49 74.5371 99.3603 73.1992 100.882 74.1886C101.922 74.8656 102.625 75.7392 101.699 77.0292Z" fill="#50686E"/>
<path d="M83.8288 163.196C81.0628 165.219 78.1474 166.121 74.8817 164.388C74.7533 162.604 74.5806 160.814 75.5935 159.186C76.0047 159.345 76.3807 159.584 76.7 159.888C78.7174 161.941 80.8613 159.617 82.9212 160.066C83.8131 160.938 83.7804 162.079 83.8288 163.196Z" fill="#A1A74D"/>
<path d="M49.6471 95.4465L42.6171 93.8538C41.8163 92.3838 38.5457 91.8738 40.8098 89.2109C44.588 90.5691 48.2042 92.3413 51.5925 94.4951C51.6577 96.2716 50.6518 95.8578 49.6471 95.4465Z" fill="#496373"/>
<path d="M101.522 66.23C104.121 66.6651 106.857 66.76 108.662 69.141C107.482 70.0941 107.557 72.0632 105.862 72.6C103.702 71.9979 101.482 71.4936 100.385 69.186C100.8 68.2142 100.489 66.9637 101.522 66.23Z" fill="#7E8B56"/>
<path d="M37.5297 140.318C34.1697 140.097 32.1756 138.025 30.6897 135.266C31.3777 134.209 32.4557 133.466 33.6887 133.201C35.5762 134.671 37.7422 135.869 38.6628 138.286L37.5297 140.318Z" fill="#939D56"/>
<path d="M74.0249 64.2459L74.7597 63.3243C75.7869 62.6453 76.9922 62.2857 78.2236 62.2911C79.4549 62.2964 80.6571 62.6664 81.6784 63.3543C81.6153 64.3989 81.8418 65.5494 80.6461 66.1803C77.5 66.1393 75.5907 67.3222 76.0508 70.8441C76.2417 72.8915 75.989 74.956 75.3099 76.8969C75.2586 77.0171 75.1804 77.1238 75.0813 77.2089C74.9822 77.294 74.8649 77.3553 74.7384 77.3878C74.6119 77.4204 74.4796 77.4235 74.3517 77.3968C74.2238 77.3701 74.1038 77.3144 74.0009 77.234L74.0249 64.2459Z" fill="#88945E"/>
<path d="M58.719 83.3502L54.7118 78.4237C53.8347 76.9737 53.7355 75.6037 55.2818 74.5454C56.3582 73.8081 57.1073 74.364 57.6596 75.3475C57.7246 77.4975 60.2796 78.6636 59.891 80.9928C60.123 82.0882 60.7753 83.3924 58.719 83.3502Z" fill="#4B646C"/>
<path d="M109.569 130.394L101.275 125.579C105.629 124.699 108.597 126.494 111.715 127.414C112.713 129.641 112.837 131.238 109.569 130.394Z" fill="#4B6472"/>
<path d="M74.6899 77.1721L74.8999 70.4177C75.1296 70.1499 75.4135 69.934 75.7328 69.7841C76.0522 69.6342 76.3997 69.5538 76.7524 69.5482C77.1051 69.5426 77.455 69.6119 77.779 69.7515C78.1029 69.8912 78.3935 70.098 78.6316 70.3583C79.0331 74.0769 76.1934 76.8529 75.7341 80.3211C73.2301 79.9868 74.4121 78.4293 74.6899 77.1721Z" fill="#4B625D"/>
<path d="M116.799 91.5054C116.361 92.122 115.777 92.6193 115.098 92.9519C114.419 93.2846 113.668 93.4421 112.913 93.41C111.108 93.6074 109.074 95.0677 107.776 92.4767C109.066 90.9998 110.73 89.8976 112.594 89.286C114.741 88.6122 116.78 88.1454 116.799 91.5054Z" fill="#516866"/>
<path d="M30.0153 115.499L27.7463 115.308C27.302 113.299 25.571 111.691 25.9184 109.436L30.699 109.32C30.899 109.441 31.0997 109.562 31.3031 109.68C32.304 110.691 32.8939 112.038 32.9585 113.459L30.0153 115.499Z" fill="#7B8852"/>
<path d="M41.5616 127.914C43.9856 125.756 46.7645 124.034 49.7754 122.824C49.0408 127.119 45.6885 128.124 44.0254 130.453C41.9959 130.779 41.2369 129.872 41.5616 127.914Z" fill="#455F6F"/>
<path d="M78.632 70.3581C77.3873 70.3776 76.143 70.3973 74.8992 70.4171C74.8392 64.7899 75.1413 64.5666 80.6457 66.1802C79.9743 67.5728 79.3031 68.9655 78.632 70.3581Z" fill="#6C7D56"/>
<path d="M16.0563 76.2313C13.2887 76.3537 13.7954 79.073 12.6712 80.4993C10.6112 78.626 9.53596 76.1385 7.74426 73.1914C11.1749 73.8993 13.7872 74.5511 16.0563 76.2313Z" fill="#E4DF40"/>
<path d="M30.6991 109.321C30.7345 109.05 30.7519 108.777 30.7512 108.503C37.3098 108.503 43.8684 108.503 50.4271 108.503C49.8155 109.135 49.0671 109.617 48.2395 109.913C47.4119 110.209 46.5274 110.311 45.6542 110.21C42.3068 109.686 39.056 110.996 35.7204 110.745C33.9704 110.748 32.2517 110.635 30.8451 109.401L30.6991 109.321Z" fill="#738796"/>
<path d="M60.8117 144.319C59.4401 144.784 58.055 146.189 56.7175 144.261L61.7475 137.333C62.7386 137.194 63.3566 137.395 62.8902 138.586C62.1972 140.497 61.5044 142.408 60.8117 144.319Z" fill="#486270"/>
<path d="M54.7568 68.3375C55.1776 68.702 55.4983 69.1681 55.6883 69.6914C55.8783 70.2147 55.9313 70.7779 55.8423 71.3275C54.9737 72.9318 54.4381 74.7864 52.5895 75.6539C51.3353 74.9012 50.3187 73.8101 49.6564 72.5058C49.8074 69.2206 51.2179 67.4768 54.7568 68.3375Z" fill="#75845A"/>
<path d="M40.8098 89.2113C40.1589 91.2463 42.1338 92.2591 42.6169 93.8535C40.6071 93.4953 38.5971 93.137 36.5869 92.7787C37.2929 91.0095 35.4627 88.3719 38.4347 87.3765C38.9306 88.3707 40.5869 87.8633 40.8098 89.2113Z" fill="#5B716E"/>
<path d="M38.6631 138.286C36.9306 136.664 33.8864 136.325 33.6892 133.201C34.3926 132.158 35.4699 131.426 36.6982 131.155C36.8067 133.828 40.297 133.154 40.8687 135.369L38.6631 138.286Z" fill="#7F8C59"/>
<path d="M30.8448 109.401L35.8193 109.371C36.9813 110.123 37.8453 110.97 36.7953 112.428C35.9035 114.214 34.2193 113.048 32.9584 113.458C32.3001 113.007 31.7629 112.401 31.3943 111.694C31.0257 110.986 30.837 110.198 30.8448 109.401V109.401Z" fill="#5E725D"/>
<path d="M41.5616 127.914C41.7545 128.495 42.0762 129.025 42.5028 129.465C42.9294 129.905 43.4498 130.243 44.0252 130.453C44.2324 132.404 42.4141 133.017 41.5229 134.243C36.8142 133.135 36.6386 132.653 39.6392 129.083L41.5616 127.914Z" fill="#5B7061"/>
<path d="M45.6648 68.4932C46.4624 64.9807 49.3163 63.245 51.9007 61.2759C52.2051 61.9559 52.5093 62.6362 52.8132 63.317C51.6493 66.0837 49.4501 68.2859 46.685 69.4537L45.6648 68.4932Z" fill="#ABAF4D"/>
<path d="M46.6848 69.4535C48.2748 67.001 50.3626 64.9102 52.8129 63.3169C53.1333 63.5436 53.3866 63.8526 53.5461 64.2113C53.7055 64.57 53.7652 64.965 53.7188 65.3548C52.7373 67.9824 50.3939 69.4907 48.6649 71.504L46.6848 69.4535Z" fill="#9BA353"/>
<path d="M36.7955 112.429C36.4696 111.41 36.144 110.39 35.8186 109.371C39.0939 109.696 42.5186 108.263 45.6542 110.211L36.7955 112.429Z" fill="#415C67"/>
<path d="M100.386 69.186C102.153 70.4168 104.931 70.0278 105.863 72.6C105.189 73.2547 104.516 73.9093 103.842 74.5639C102.02 74.3595 100.309 73.5858 98.9529 72.353C99.4304 71.2971 99.908 70.2414 100.386 69.186Z" fill="#6F805B"/>
<path d="M52.5895 75.6535C52.6764 74.7015 53.0267 73.7924 53.6012 73.0283C54.1757 72.2641 54.9517 71.6751 55.8422 71.3271C56.5631 72.6152 57.9675 73.5944 57.6593 75.3472C54.1732 73.9736 55.0437 76.7743 54.7119 78.4232L52.5895 75.6535Z" fill="#627667"/>
<path d="M112.936 177.2C114.502 174.057 113.321 170.696 113.71 167.46C113.918 165.723 113.05 163.767 114.733 162.323C114.605 167.358 114.483 172.393 114.316 177.426C114.311 177.567 113.803 177.826 113.569 177.787C113.332 177.748 113.145 177.408 112.936 177.2Z" fill="#E4E04F"/>
<path d="M82.9213 160.066C80.5996 161.02 78.3701 164.75 75.8693 160.3C77.1593 158.723 80.214 159.538 80.6266 156.775C80.8401 156.142 81.2712 155.605 81.8434 155.259C82.8515 156.716 82.8087 158.408 82.9213 160.066Z" fill="#8F994F"/>
<path d="M48.6648 71.5042C49.1416 68.4618 51.538 66.997 53.7188 65.355C54.0824 65.7575 54.3616 66.2288 54.5399 66.7411C54.7182 67.2534 54.792 67.7962 54.7568 68.3375C52.1532 68.6211 50.9044 70.5628 49.6568 72.5054C49.3259 72.1717 48.9952 71.838 48.6648 71.5042Z" fill="#899454"/>
<path d="M109.569 130.393C111.53 130.297 111.8 128.983 111.715 127.414L114.784 128.162C116.005 131.784 115.841 132.131 112.822 132.295L109.569 130.393Z" fill="#566D66"/>
<path d="M81.8434 155.259C81.7896 155.953 81.7358 156.646 81.6819 157.339C80.0531 159.75 78.0288 159.783 75.7565 158.324C75.7204 155.913 75.3583 153.462 76.612 151.207C76.6853 151.877 76.759 152.548 76.8331 153.217C77.8319 155.478 80.2278 154.376 81.7914 155.277L81.8434 155.259Z" fill="#78875A"/>
<path d="M112.822 132.295C115.517 131.886 114.467 129.7 114.784 128.163C115.439 128.233 116.094 128.304 116.749 128.374C117.07 128.699 117.39 129.024 117.71 129.35C118.924 133.29 118.576 133.753 114.714 133.341C114.333 133.361 113.954 133.273 113.619 133.088C113.285 132.903 113.009 132.629 112.822 132.295V132.295Z" fill="#66795F"/>
<path d="M98.9529 72.3527C99.89 72.261 100.835 72.4169 101.693 72.8049C102.551 73.1929 103.292 73.7994 103.842 74.5637C103.45 75.6179 102.688 76.494 101.699 77.0289C101.301 74.0089 99.4375 74.5014 97.4623 75.2615C97.9591 74.292 98.4559 73.3224 98.9529 72.3527Z" fill="#627666"/>
<path d="M145.87 100.381C145.577 100.404 145.282 100.364 145.006 100.263C144.73 100.162 144.479 100.003 144.271 99.796C144.062 99.5891 143.9 99.3397 143.797 99.0646C143.693 98.7895 143.65 98.4954 143.671 98.2022C144.684 96.9128 145.696 95.6237 146.709 94.3347C147.641 94.1123 148.126 94.3478 147.807 95.4067C147.161 97.0646 146.516 98.7226 145.87 100.381Z" fill="#DED840"/>
<path d="M114.715 133.341C117.859 133.62 117.824 131.514 117.711 129.349C121.312 131.335 120.058 133.332 117.725 135.332L114.715 133.341Z" fill="#73835D"/>
<path d="M81.678 63.3542C79.3714 63.3444 77.065 63.3344 74.759 63.3242C76.789 59.7234 79.359 61.1854 81.9198 62.5606C81.9578 62.7022 81.9552 62.8517 81.9125 62.992C81.8698 63.1322 81.7885 63.2577 81.678 63.3542V63.3542Z" fill="#959E4F"/>
<path d="M107.776 92.4766C109.272 93.9793 111.208 93.0566 112.912 93.4098C110.659 94.3377 108.495 95.5529 105.956 95.552C104.986 95.6828 103.719 96.392 103.809 94.4526L107.776 92.4766Z" fill="#4D6673"/>
<path d="M39.6391 129.083C37.3611 131.864 38.8003 133.288 41.5228 134.244C41.3048 134.619 41.0867 134.994 40.8685 135.369C38.9242 134.513 35.9458 134.681 36.6985 131.156C37.4167 130.153 38.4531 129.422 39.6391 129.083V129.083Z" fill="#718263"/>
<path d="M81.7914 155.277C79.4765 156.185 76.8003 157.965 76.8322 153.218C77.4982 153.337 78.1823 153.31 78.8367 153.138C79.4911 152.965 80.1 152.653 80.6212 152.221C81.499 152.647 81.0129 153.734 81.6236 154.29L81.7914 155.277Z" fill="#6A7C61"/>
<path d="M75.7565 158.324C77.7877 158.33 79.8506 158.527 81.6824 157.338C81.2735 161.33 78.1903 160.068 75.8682 160.3C75.7776 159.928 75.6862 159.556 75.594 159.185C75.5365 159.041 75.5213 158.883 75.5501 158.731C75.5788 158.578 75.6504 158.437 75.7565 158.324V158.324Z" fill="#838F53"/>
<path d="M103.675 47.3652C105.299 51.3506 105.518 55.3214 103.55 59.2687C103.591 55.3005 103.633 51.3327 103.675 47.3652Z" fill="#E7E14C"/>
<path d="M73.6282 178.009C74.2461 180.717 72.8242 183.663 74.5905 186.235C74.005 187.843 73.0375 188.25 72.9329 186.228C72.7922 183.504 72.308 180.649 73.6282 178.009Z" fill="#E5E046"/>
<path d="M116.799 91.5054C116.049 89.5311 114.393 89.2713 112.594 89.286C113.504 88.5744 114.414 87.8629 115.324 87.1514C117.313 87.8051 117.835 89.665 118.693 91.2487L116.799 91.5054Z" fill="#617565"/>
<path d="M29.3657 156.434C30.1991 156.764 31.0328 157.093 31.867 157.423C31.9933 159.132 32.119 160.841 32.2822 163.059C30.3436 160.837 30.0718 158.543 29.3657 156.434Z" fill="#E5E041"/>
<path d="M133.593 66.3996C132.917 66.6963 132.241 66.993 131.565 67.2896C131.889 65.7647 131.18 64.0205 132.692 62.4268C134.208 63.563 133.694 65.0407 133.593 66.3996Z" fill="#E4E25B"/>
<path d="M41.6685 43.1309C41.292 46.1935 42.8952 49.4909 40.5785 52.3235C40.7561 49.2373 40.3316 46.0797 41.6685 43.1309Z" fill="#E2DE44"/>
<path d="M74.823 83.4392C74.7948 84.7616 74.8305 86.1154 72.989 86.818C72.7063 85.8904 72.6139 84.9151 72.7173 83.9509C72.8208 82.9866 73.118 82.0531 73.591 81.2065C74.6227 81.608 74.1317 82.8498 74.823 83.4392Z" fill="#98A7B4"/>
<path d="M143.914 128.537L142.611 127.228C143.966 126.19 145.227 124.984 147.472 124.572C146.722 126.229 145.48 127.613 143.914 128.537V128.537Z" fill="#E7E572"/>
<path d="M122.718 52.2905C122.652 50.8326 121.713 50.3495 120.433 50.2436C121.87 49.5777 123.307 48.9122 125.643 47.8306C124.72 50.1489 124.117 51.451 122.718 52.2905Z" fill="#E5DF3E"/>
<path d="M74.8231 83.4391C73.7841 83.0416 73.8997 82.0071 73.5912 81.2064C73.7275 79.8834 73.8639 78.5598 74.0004 77.2356C74.2312 77.2882 74.4726 77.2666 74.6904 77.1738C74.8534 78.2831 74.4799 79.5723 75.7347 80.3212C75.4308 81.3604 75.127 82.3997 74.8231 83.4391Z" fill="#576F7A"/>
<path d="M28.7866 58.3925L30.755 60.3342C28.8787 60.3531 26.972 60.4742 25.5306 58.8295C26.0124 58.5325 26.5513 58.3402 27.1122 58.2649C27.6731 58.1896 28.2436 58.2331 28.7866 58.3925V58.3925Z" fill="#E8E679"/>
<path d="M104.702 45.3642C104.372 45.587 104.105 45.8917 103.927 46.2485C103.75 46.6053 103.668 47.0021 103.69 47.4C102.556 46.0452 102.708 44.4846 102.72 42.8242C103.317 42.9026 103.86 43.2129 104.231 43.6881C104.602 44.1634 104.771 44.7654 104.702 45.3642V45.3642Z" fill="#E7E14C"/>
<path d="M80.7964 149.291C78.8009 147.037 79.9816 144.381 79.8596 141.887C80.7062 144.257 81.0258 146.784 80.7964 149.291V149.291Z" fill="#4D6779"/>
<path d="M12.6349 149.206C13.6904 150.878 15.4915 149.988 16.9004 150.448C16.2543 150.95 15.4944 151.284 14.6881 151.422C13.8819 151.56 13.054 151.497 12.278 151.238C10.1596 150.566 11.7949 149.791 12.6349 149.206Z" fill="#E6E679"/>
<path d="M147.807 95.407L146.709 94.335C147.315 93.0771 147.645 91.605 149.462 90.9482C149.465 92.5853 148.878 94.1685 147.807 95.407V95.407Z" fill="#EAE98B"/>
<path d="M9.814 93.5571L9.77521 95.4933C9.29531 96.068 8.68165 96.5162 7.98813 96.7983C7.29461 97.0805 6.54243 97.1881 5.79761 97.1117L9.814 93.5571Z" fill="#E3E162"/>
<path d="M7.72195 110.156C5.57115 112.394 2.88196 110.975 0.437256 111.227C2.72216 109.905 5.25585 110.26 7.72195 110.156Z" fill="#E1DE43"/>
<path d="M58.7994 178.253C59.1694 177.897 59.5394 177.541 59.9094 177.186C60.3908 177.631 60.7713 178.174 61.0257 178.779C61.28 179.383 61.4022 180.035 61.384 180.691C59.7267 180.639 59.3229 179.381 58.7994 178.253Z" fill="#E9E883"/>
<path d="M103.809 94.4526C104.213 95.4284 105.206 95.2518 105.956 95.5518C105.293 96.019 104.528 96.3206 103.724 96.4316C102.921 96.5425 102.103 96.4595 101.338 96.1895C101.611 94.7839 102.967 94.9754 103.809 94.4526Z" fill="#8092A2"/>
<path d="M428.67 12.5863C428.773 13.2334 428.569 13.6363 427.945 13.4943C427.474 13.4009 427.042 13.1703 426.702 12.8316C426.591 12.7063 426.903 11.9194 427.183 11.7934C427.952 11.448 428.312 12.1247 428.67 12.5863Z" fill="#EFEFAB"/>
<path d="M58.719 83.3501C59.6807 82.849 59.7006 81.8801 59.8904 80.9937C60.6439 82.231 61.6704 83.7502 60.5204 84.8859C59.7804 85.6161 59.0526 84.2439 58.719 83.3501Z" fill="#556E83"/>
<path d="M123.687 160.189C124.023 159.577 124.359 158.965 124.695 158.354L127.746 158.292C128.316 160.279 126.297 159.462 125.697 160.182L123.687 160.189Z" fill="#E9E679"/>
<path d="M125.697 160.182L127.746 158.292C128.366 158.312 129.302 158.482 129.004 159.134C128.378 160.5 126.957 160.29 125.697 160.182Z" fill="#EEEEA4"/>
<path d="M49.6472 95.4465L51.5926 94.4951C52.3847 94.6182 53.5967 95.1558 53.1891 95.7056C52.1302 97.1336 50.7957 96.2517 49.6472 95.4465Z" fill="#8F9FAD"/>
<path d="M62.8899 138.585L61.7473 137.332C62.2567 136.419 62.7147 134.634 63.8558 135.475C64.9124 136.254 63.6687 137.644 62.8899 138.585Z" fill="#5A7287"/>
<path d="M85.7855 50.472C85.9491 48.712 85.017 46.7248 86.8555 45.311C86.7984 47.0932 87.0266 48.9349 85.7855 50.472Z" fill="#E3DF44"/>
<path d="M92.6298 137.373C92.2805 137.779 91.9313 138.184 91.5821 138.59C90.7831 137.633 89.3938 136.299 90.6115 135.42C91.7585 134.593 92.2695 136.329 92.6298 137.373Z" fill="#566F84"/>
<path d="M44.6249 46.3334C43.0326 45.6008 42.651 44.2443 42.7277 42.6519C43.3387 43.0455 43.8356 43.5928 44.1686 44.2389C44.5015 44.885 44.6589 45.6073 44.6249 46.3334Z" fill="#E2DE44"/>
<path d="M81.6236 154.29C81.2903 153.601 80.9565 152.911 80.6222 152.222C80.7008 151.238 80.7802 150.255 80.8604 149.272C81.844 150.834 81.6429 152.576 81.6236 154.29Z" fill="#78875A"/>
<path d="M31.8136 157.401C31.928 155.698 31.1325 153.847 32.6254 152.366C32.6525 154.092 32.8579 155.848 31.8136 157.401Z" fill="#E5E041"/>
<path d="M310.877 103.572C309.713 64.8502 349.842 41.1101 382.711 56.3047C383.178 56.4816 383.629 56.6967 384.061 56.9478C387.196 59.0939 391.759 60.8705 392.142 64.4678C392.407 66.9445 387.446 67.9309 384.805 69.5103C362.269 82.9848 339.696 96.3972 317.085 109.748C311.07 113.32 311.042 113.324 310.881 106.317C310.854 105.152 310.877 103.987 310.877 103.572Z" fill="#FEFEFE"/>
<path d="M25.9185 109.436C26.5618 111.383 28.0545 113.066 27.7465 115.308C26.7666 113.466 24.0243 112.173 25.9185 109.436Z" fill="#929C63"/>
</g>
<defs>
<clipPath id="clip0">
<rect width="650" height="188" fill="white"/>
</clipPath>
</defs>
</svg>
